<?xml version="1.0" standalone="no"?>
<!DOCTYPE svg PUBLIC "-//W3C//DTD SVG 20010904//EN"
 "http://www.w3.org/TR/2001/REC-SVG-20010904/DTD/svg10.dtd">
<svg version="1.0" xmlns="http://www.w3.org/2000/svg"
 width="260.000000pt" height="260.000000pt" viewBox="0 0 260.000000 260.000000"
 preserveAspectRatio="xMidYMid meet">
<metadata>
Created by potrace 1.11, written by Peter Selinger 2001-2013
</metadata>
<g transform="translate(0.000000,260.000000) scale(0.100000,-0.100000)"
fill="#000000" stroke="none">
<path d="M310 2280 c0 -6 18 -40 40 -76 22 -36 40 -67 40 -69 0 -1 25 -44 55
-94 30 -51 55 -95 55 -99 0 -5 6 -14 13 -21 8 -8 12 -49 12 -129 l1 -117 67
-3 67 -3 0 116 0 116 105 180 c58 99 108 186 111 194 5 12 -6 15 -64 15 -44 0
-73 -5 -79 -12 -11 -13 -95 -168 -123 -225 l-15 -32 -71 132 -71 132 -72 3
c-45 2 -71 -1 -71 -8z"/>
<path d="M1752 2063 c3 -200 5 -233 22 -266 45 -90 114 -130 231 -134 67 -2
89 2 130 21 59 28 98 66 121 121 14 33 18 78 19 263 l2 222 -68 0 -69 0 0
-205 c0 -183 -2 -210 -19 -243 -48 -93 -169 -93 -218 1 -14 27 -17 65 -18 237
l-1 205 -68 3 -67 3 3 -228z"/>
<path d="M1914 929 c-109 -41 -179 -138 -190 -262 -12 -127 40 -244 133 -303
66 -42 112 -52 216 -50 76 1 102 6 150 28 l57 27 1 60 c0 34 0 84 0 111 0 101
13 91 -113 88 l-113 -3 1 -27 c1 -16 2 -35 3 -42 1 -10 16 -16 49 -18 l47 -3
0 -44 c1 -42 -14 -69 -38 -73 -101 -13 -169 8 -210 64 -36 50 -44 77 -45 143
0 75 28 137 81 179 35 28 46 31 105 30 50 0 77 -6 105 -22 55 -32 81 -29 107
13 27 43 20 54 -54 93 -68 35 -214 40 -292 11z"/>
<path d="M339 923 c0 -10 -1 -150 -2 -310 l-2 -293 62 0 63 0 2 191 3 191 70
-88 c162 -207 220 -279 230 -286 5 -4 31 -8 58 -8 l47 0 1 78 c0 109 0 482 0
515 -1 26 -2 27 -61 27 l-60 0 0 -196 0 -196 -65 84 c-36 45 -71 90 -78 98 -7
8 -43 56 -82 105 -38 50 -74 93 -80 97 -5 4 -31 8 -57 8 -39 0 -48 -3 -49 -17z"/>
</g>
</svg>
